<svg width="936" height="97" viewBox="0 0 936 97" fill="none" xmlns="http://www.w3.org/2000/svg">
<g filter="url(#filter0_d_3_8)">
<path d="M20.9062 9.875V44H14.4844V9.875H20.9062ZM31.5 9.875V14.9609H4.00781V9.875H31.5ZM58.4297 23.9609V29.0234H40.4766V23.9609H58.4297ZM42.2344 9.875V44H35.7891V9.875H42.2344ZM63.2109 9.875V44H56.7656V9.875H63.2109ZM97.4062 26.0703V27.8281C97.4062 30.4062 97.0625 32.7266 96.375 34.7891C95.6875 36.8359 94.7109 38.5781 93.4453 40.0156C92.1797 41.4531 90.6719 42.5547 88.9219 43.3203C87.1719 44.0859 85.2266 44.4688 83.0859 44.4688C80.9766 44.4688 79.0391 44.0859 77.2734 43.3203C75.5234 42.5547 74.0078 41.4531 72.7266 40.0156C71.4453 38.5781 70.4531 36.8359 69.75 34.7891C69.0469 32.7266 68.6953 30.4062 68.6953 27.8281V26.0703C68.6953 23.4766 69.0469 21.1562 69.75 19.1094C70.4531 17.0625 71.4375 15.3203 72.7031 13.8828C73.9688 12.4297 75.4766 11.3203 77.2266 10.5547C78.9922 9.78906 80.9297 9.40625 83.0391 9.40625C85.1797 9.40625 87.125 9.78906 88.875 10.5547C90.625 11.3203 92.1328 12.4297 93.3984 13.8828C94.6797 15.3203 95.6641 17.0625 96.3516 19.1094C97.0547 21.1562 97.4062 23.4766 97.4062 26.0703ZM90.8906 27.8281V26.0234C90.8906 24.1641 90.7188 22.5312 90.375 21.125C90.0312 19.7031 89.5234 18.5078 88.8516 17.5391C88.1797 16.5703 87.3516 15.8438 86.3672 15.3594C85.3828 14.8594 84.2734 14.6094 83.0391 14.6094C81.7891 14.6094 80.6797 14.8594 79.7109 15.3594C78.7578 15.8438 77.9453 16.5703 77.2734 17.5391C76.6016 18.5078 76.0859 19.7031 75.7266 21.125C75.3828 22.5312 75.2109 24.1641 75.2109 26.0234V27.8281C75.2109 29.6719 75.3828 31.3047 75.7266 32.7266C76.0859 34.1484 76.6016 35.3516 77.2734 36.3359C77.9609 37.3047 78.7891 38.0391 79.7578 38.5391C80.7266 39.0391 81.8359 39.2891 83.0859 39.2891C84.3359 39.2891 85.4453 39.0391 86.4141 38.5391C87.3828 38.0391 88.1953 37.3047 88.8516 36.3359C89.5234 35.3516 90.0312 34.1484 90.375 32.7266C90.7188 31.3047 90.8906 29.6719 90.8906 27.8281ZM105.68 9.875H111.258L120.586 35.5625L129.891 9.875H135.492L122.812 44H118.336L105.68 9.875ZM102.867 9.875H108.328L109.312 33.4766V44H102.867V9.875ZM132.82 9.875H138.305V44H131.859V33.4766L132.82 9.875ZM158.859 15.0547L149.133 44H142.312L155.062 9.875H159.422L158.859 15.0547ZM166.992 44L157.219 15.0547L156.633 9.875H161.016L173.836 44H166.992ZM166.547 31.3203V36.4062H148.242V31.3203H166.547ZM195.211 35.1406C195.211 34.4844 195.109 33.8984 194.906 33.3828C194.719 32.8516 194.367 32.375 193.852 31.9531C193.352 31.5156 192.641 31.0938 191.719 30.6875C190.812 30.2656 189.641 29.8281 188.203 29.375C186.609 28.875 185.125 28.3125 183.75 27.6875C182.375 27.0625 181.164 26.3359 180.117 25.5078C179.086 24.6797 178.281 23.7266 177.703 22.6484C177.125 21.5547 176.836 20.2891 176.836 18.8516C176.836 17.4453 177.133 16.1641 177.727 15.0078C178.336 13.8516 179.195 12.8594 180.305 12.0312C181.414 11.1875 182.719 10.5391 184.219 10.0859C185.734 9.63281 187.406 9.40625 189.234 9.40625C191.766 9.40625 193.953 9.86719 195.797 10.7891C197.656 11.7109 199.094 12.9609 200.109 14.5391C201.125 16.1172 201.633 17.8906 201.633 19.8594H195.211C195.211 18.7969 194.984 17.8594 194.531 17.0469C194.094 16.2344 193.422 15.5938 192.516 15.125C191.625 14.6562 190.5 14.4219 189.141 14.4219C187.828 14.4219 186.734 14.6172 185.859 15.0078C185 15.3984 184.352 15.9297 183.914 16.6016C183.492 17.2734 183.281 18.0234 183.281 18.8516C183.281 19.4766 183.43 20.0391 183.727 20.5391C184.023 21.0234 184.469 21.4844 185.062 21.9219C185.656 22.3438 186.391 22.7422 187.266 23.1172C188.156 23.4766 189.188 23.8359 190.359 24.1953C192.234 24.7578 193.875 25.3828 195.281 26.0703C196.703 26.7578 197.883 27.5391 198.82 28.4141C199.773 29.2891 200.484 30.2734 200.953 31.3672C201.438 32.4609 201.68 33.7031 201.68 35.0938C201.68 36.5625 201.391 37.875 200.812 39.0312C200.234 40.1875 199.406 41.1719 198.328 41.9844C197.25 42.7969 195.953 43.4141 194.438 43.8359C192.938 44.2578 191.258 44.4688 189.398 44.4688C187.742 44.4688 186.102 44.25 184.477 43.8125C182.867 43.3594 181.406 42.6875 180.094 41.7969C178.781 40.8906 177.734 39.75 176.953 38.375C176.172 36.9844 175.781 35.3594 175.781 33.5H182.25C182.25 34.5781 182.422 35.5 182.766 36.2656C183.125 37.0156 183.625 37.6328 184.266 38.1172C184.922 38.5859 185.688 38.9297 186.562 39.1484C187.438 39.3672 188.383 39.4766 189.398 39.4766C190.711 39.4766 191.789 39.2969 192.633 38.9375C193.492 38.5625 194.133 38.0469 194.555 37.3906C194.992 36.7344 195.211 35.9844 195.211 35.1406ZM238.57 32.7734H245.016C244.844 35.0547 244.211 37.0781 243.117 38.8438C242.023 40.5938 240.5 41.9688 238.547 42.9688C236.594 43.9688 234.227 44.4688 231.445 44.4688C229.305 44.4688 227.375 44.0938 225.656 43.3438C223.953 42.5781 222.492 41.4922 221.273 40.0859C220.07 38.6641 219.148 36.9609 218.508 34.9766C217.867 32.9766 217.547 30.7344 217.547 28.25V25.6484C217.547 23.1641 217.875 20.9219 218.531 18.9219C219.188 16.9219 220.125 15.2188 221.344 13.8125C222.578 12.3906 224.055 11.2969 225.773 10.5312C227.508 9.76562 229.445 9.38281 231.586 9.38281C234.367 9.38281 236.719 9.89844 238.641 10.9297C240.562 11.9453 242.055 13.3438 243.117 15.125C244.18 16.9062 244.82 18.9531 245.039 21.2656H238.594C238.469 19.8281 238.156 18.6094 237.656 17.6094C237.172 16.6094 236.438 15.8516 235.453 15.3359C234.484 14.8047 233.195 14.5391 231.586 14.5391C230.336 14.5391 229.234 14.7734 228.281 15.2422C227.344 15.7109 226.562 16.4141 225.938 17.3516C225.312 18.2734 224.844 19.4297 224.531 20.8203C224.219 22.1953 224.062 23.7891 224.062 25.6016V28.25C224.062 29.9844 224.203 31.5391 224.484 32.9141C224.766 34.2891 225.203 35.4531 225.797 36.4062C226.391 37.3594 227.156 38.0859 228.094 38.5859C229.031 39.0859 230.148 39.3359 231.445 39.3359C233.023 39.3359 234.305 39.0859 235.289 38.5859C236.289 38.0859 237.047 37.3516 237.562 36.3828C238.094 35.4141 238.43 34.2109 238.57 32.7734ZM271.664 38.9375V44H254.508V38.9375H271.664ZM256.453 9.875V44H250.008V9.875H256.453ZM273.867 9.875L281.367 25.7891L288.914 9.875H295.992L284.648 31.5078V44H278.109V31.5078L266.742 9.875H273.867ZM309.609 44H302.25L302.297 38.9375H309.609C311.594 38.9375 313.258 38.5 314.602 37.625C315.945 36.7344 316.961 35.4609 317.648 33.8047C318.336 32.1328 318.68 30.1328 318.68 27.8047V26.0469C318.68 24.25 318.484 22.6641 318.094 21.2891C317.703 19.9141 317.125 18.7578 316.359 17.8203C315.609 16.8828 314.68 16.1719 313.57 15.6875C312.461 15.2031 311.188 14.9609 309.75 14.9609H302.109V9.875H309.75C312.031 9.875 314.109 10.2578 315.984 11.0234C317.875 11.7891 319.508 12.8906 320.883 14.3281C322.273 15.75 323.336 17.4531 324.07 19.4375C324.82 21.4219 325.195 23.6406 325.195 26.0938V27.8047C325.195 30.2422 324.82 32.4609 324.07 34.4609C323.336 36.4453 322.273 38.1484 320.883 39.5703C319.508 40.9922 317.867 42.0859 315.961 42.8516C314.055 43.6172 311.938 44 309.609 44ZM305.859 9.875V44H299.414V9.875H305.859ZM353.297 38.9375V44H335.156V38.9375H353.297ZM337.125 9.875V44H330.68V9.875H337.125ZM350.93 23.9609V28.9062H335.156V23.9609H350.93ZM353.227 9.875V14.9609H335.156V9.875H353.227Z" fill="white"/>
<path d="M402.648 37.4609L409.445 9.875H413.125L413.359 15.6875L406.094 44H402.203L402.648 37.4609ZM398.359 9.875L403.938 37.3672V44H399.695L391.961 9.875H398.359ZM420.414 37.25L425.898 9.875H432.32L424.586 44H420.344L420.414 37.25ZM414.883 9.875L421.68 37.5547L422.078 44H418.188L410.945 15.6641L411.227 9.875H414.883ZM459.016 38.9375V44H440.875V38.9375H459.016ZM442.844 9.875V44H436.398V9.875H442.844ZM456.648 23.9609V28.9062H440.875V23.9609H456.648ZM458.945 9.875V14.9609H440.875V9.875H458.945ZM470.359 9.875V44H463.914V9.875H470.359ZM497.289 32.7734H503.734C503.562 35.0547 502.93 37.0781 501.836 38.8438C500.742 40.5938 499.219 41.9688 497.266 42.9688C495.312 43.9688 492.945 44.4688 490.164 44.4688C488.023 44.4688 486.094 44.0938 484.375 43.3438C482.672 42.5781 481.211 41.4922 479.992 40.0859C478.789 38.6641 477.867 36.9609 477.227 34.9766C476.586 32.9766 476.266 30.7344 476.266 28.25V25.6484C476.266 23.1641 476.594 20.9219 477.25 18.9219C477.906 16.9219 478.844 15.2188 480.062 13.8125C481.297 12.3906 482.773 11.2969 484.492 10.5312C486.227 9.76562 488.164 9.38281 490.305 9.38281C493.086 9.38281 495.438 9.89844 497.359 10.9297C499.281 11.9453 500.773 13.3438 501.836 15.125C502.898 16.9062 503.539 18.9531 503.758 21.2656H497.312C497.188 19.8281 496.875 18.6094 496.375 17.6094C495.891 16.6094 495.156 15.8516 494.172 15.3359C493.203 14.8047 491.914 14.5391 490.305 14.5391C489.055 14.5391 487.953 14.7734 487 15.2422C486.062 15.7109 485.281 16.4141 484.656 17.3516C484.031 18.2734 483.562 19.4297 483.25 20.8203C482.938 22.1953 482.781 23.7891 482.781 25.6016V28.25C482.781 29.9844 482.922 31.5391 483.203 32.9141C483.484 34.2891 483.922 35.4531 484.516 36.4062C485.109 37.3594 485.875 38.0859 486.812 38.5859C487.75 39.0859 488.867 39.3359 490.164 39.3359C491.742 39.3359 493.023 39.0859 494.008 38.5859C495.008 38.0859 495.766 37.3516 496.281 36.3828C496.812 35.4141 497.148 34.2109 497.289 32.7734ZM531.367 23.9609V29.0234H513.414V23.9609H531.367ZM515.172 9.875V44H508.727V9.875H515.172ZM536.148 9.875V44H529.703V9.875H536.148ZM565.328 38.9375V44H547.188V38.9375H565.328ZM549.156 9.875V44H542.711V9.875H549.156ZM562.961 23.9609V28.9062H547.188V23.9609H562.961ZM565.258 9.875V14.9609H547.188V9.875H565.258ZM569.805 9.875H582.203C584.797 9.875 587.023 10.2656 588.883 11.0469C590.742 11.8281 592.172 12.9844 593.172 14.5156C594.172 16.0469 594.672 17.9297 594.672 20.1641C594.672 21.9297 594.359 23.4609 593.734 24.7578C593.109 26.0547 592.227 27.1406 591.086 28.0156C589.961 28.8906 588.633 29.5781 587.102 30.0781L585.086 31.1094H574.141L574.094 26.0234H582.273C583.602 26.0234 584.703 25.7891 585.578 25.3203C586.453 24.8516 587.109 24.2031 587.547 23.375C588 22.5469 588.227 21.6016 588.227 20.5391C588.227 19.3984 588.008 18.4141 587.57 17.5859C587.133 16.7422 586.469 16.0938 585.578 15.6406C584.688 15.1875 583.562 14.9609 582.203 14.9609H576.25V44H569.805V9.875ZM589.07 44L581.172 28.7188L587.992 28.6953L595.984 43.6719V44H589.07ZM613.469 9.875V44H607.047V9.875H613.469ZM624.062 9.875V14.9609H596.57V9.875H624.062ZM639.133 9.875H651.531C654.125 9.875 656.352 10.2656 658.211 11.0469C660.07 11.8281 661.5 12.9844 662.5 14.5156C663.5 16.0469 664 17.9297 664 20.1641C664 21.9297 663.688 23.4609 663.062 24.7578C662.438 26.0547 661.555 27.1406 660.414 28.0156C659.289 28.8906 657.961 29.5781 656.43 30.0781L654.414 31.1094H643.469L643.422 26.0234H651.602C652.93 26.0234 654.031 25.7891 654.906 25.3203C655.781 24.8516 656.438 24.2031 656.875 23.375C657.328 22.5469 657.555 21.6016 657.555 20.5391C657.555 19.3984 657.336 18.4141 656.898 17.5859C656.461 16.7422 655.797 16.0938 654.906 15.6406C654.016 15.1875 652.891 14.9609 651.531 14.9609H645.578V44H639.133V9.875ZM658.398 44L650.5 28.7188L657.32 28.6953L665.312 43.6719V44H658.398ZM692.266 38.9375V44H674.125V38.9375H692.266ZM676.094 9.875V44H669.648V9.875H676.094ZM689.898 23.9609V28.9062H674.125V23.9609H689.898ZM692.195 9.875V14.9609H674.125V9.875H692.195ZM710.312 15.0547L700.586 44H693.766L706.516 9.875H710.875L710.312 15.0547ZM718.445 44L708.672 15.0547L708.086 9.875H712.469L725.289 44H718.445ZM718 31.3203V36.4062H699.695V31.3203H718ZM750.461 38.9375V44H733.305V38.9375H750.461ZM735.25 9.875V44H728.805V9.875H735.25ZM789.344 38.9375V44H771.203V38.9375H789.344ZM773.172 9.875V44H766.727V9.875H773.172ZM786.977 23.9609V28.9062H771.203V23.9609H786.977ZM789.273 9.875V14.9609H771.203V9.875H789.273ZM811.68 35.1406C811.68 34.4844 811.578 33.8984 811.375 33.3828C811.188 32.8516 810.836 32.375 810.32 31.9531C809.82 31.5156 809.109 31.0938 808.188 30.6875C807.281 30.2656 806.109 29.8281 804.672 29.375C803.078 28.875 801.594 28.3125 800.219 27.6875C798.844 27.0625 797.633 26.3359 796.586 25.5078C795.555 24.6797 794.75 23.7266 794.172 22.6484C793.594 21.5547 793.305 20.2891 793.305 18.8516C793.305 17.4453 793.602 16.1641 794.195 15.0078C794.805 13.8516 795.664 12.8594 796.773 12.0312C797.883 11.1875 799.188 10.5391 800.688 10.0859C802.203 9.63281 803.875 9.40625 805.703 9.40625C808.234 9.40625 810.422 9.86719 812.266 10.7891C814.125 11.7109 815.562 12.9609 816.578 14.5391C817.594 16.1172 818.102 17.8906 818.102 19.8594H811.68C811.68 18.7969 811.453 17.8594 811 17.0469C810.562 16.2344 809.891 15.5938 808.984 15.125C808.094 14.6562 806.969 14.4219 805.609 14.4219C804.297 14.4219 803.203 14.6172 802.328 15.0078C801.469 15.3984 800.82 15.9297 800.383 16.6016C799.961 17.2734 799.75 18.0234 799.75 18.8516C799.75 19.4766 799.898 20.0391 800.195 20.5391C800.492 21.0234 800.938 21.4844 801.531 21.9219C802.125 22.3438 802.859 22.7422 803.734 23.1172C804.625 23.4766 805.656 23.8359 806.828 24.1953C808.703 24.7578 810.344 25.3828 811.75 26.0703C813.172 26.7578 814.352 27.5391 815.289 28.4141C816.242 29.2891 816.953 30.2734 817.422 31.3672C817.906 32.4609 818.148 33.7031 818.148 35.0938C818.148 36.5625 817.859 37.875 817.281 39.0312C816.703 40.1875 815.875 41.1719 814.797 41.9844C813.719 42.7969 812.422 43.4141 810.906 43.8359C809.406 44.2578 807.727 44.4688 805.867 44.4688C804.211 44.4688 802.57 44.25 800.945 43.8125C799.336 43.3594 797.875 42.6875 796.562 41.7969C795.25 40.8906 794.203 39.75 793.422 38.375C792.641 36.9844 792.25 35.3594 792.25 33.5H798.719C798.719 34.5781 798.891 35.5 799.234 36.2656C799.594 37.0156 800.094 37.6328 800.734 38.1172C801.391 38.5859 802.156 38.9297 803.031 39.1484C803.906 39.3672 804.852 39.4766 805.867 39.4766C807.18 39.4766 808.258 39.2969 809.102 38.9375C809.961 38.5625 810.602 38.0469 811.023 37.3906C811.461 36.7344 811.68 35.9844 811.68 35.1406ZM837.766 9.875V44H831.344V9.875H837.766ZM848.359 9.875V14.9609H820.867V9.875H848.359ZM863.828 15.0547L854.102 44H847.281L860.031 9.875H864.391L863.828 15.0547ZM871.961 44L862.188 15.0547L861.602 9.875H865.984L878.805 44H871.961ZM871.516 31.3203V36.4062H853.211V31.3203H871.516ZM894.016 9.875V44H887.594V9.875H894.016ZM904.609 9.875V14.9609H877.117V9.875H904.609ZM931.516 38.9375V44H913.375V38.9375H931.516ZM915.344 9.875V44H908.898V9.875H915.344ZM929.148 23.9609V28.9062H913.375V23.9609H929.148ZM931.445 9.875V14.9609H913.375V9.875H931.445Z" fill="white"/>
<path d="M5.9707 57.4062H14.4434C16.3652 57.4062 17.9883 57.6992 19.3125 58.2852C20.6484 58.8711 21.6621 59.7383 22.3535 60.8867C23.0566 62.0234 23.4082 63.4238 23.4082 65.0879C23.4082 66.2598 23.168 67.332 22.6875 68.3047C22.2188 69.2656 21.5391 70.0859 20.6484 70.7656C19.7695 71.4336 18.7148 71.9316 17.4844 72.2598L16.5352 72.6289H8.57227L8.53711 69.8691H14.5488C15.7676 69.8691 16.7812 69.6582 17.5898 69.2363C18.3984 68.8027 19.0078 68.2227 19.418 67.4961C19.8281 66.7695 20.0332 65.9668 20.0332 65.0879C20.0332 64.1035 19.8398 63.2422 19.4531 62.5039C19.0664 61.7656 18.457 61.1973 17.625 60.7988C16.8047 60.3887 15.7441 60.1836 14.4434 60.1836H9.36328V83H5.9707V57.4062ZM20.9297 83L14.707 71.3984L18.2402 71.3809L24.5508 82.7891V83H20.9297ZM35.5547 83.3516C34.2305 83.3516 33.0293 83.1289 31.9512 82.6836C30.8848 82.2266 29.9648 81.5879 29.1914 80.7676C28.4297 79.9473 27.8438 78.9746 27.4336 77.8496C27.0234 76.7246 26.8184 75.4941 26.8184 74.1582V73.4199C26.8184 71.873 27.0469 70.4961 27.5039 69.2891C27.9609 68.0703 28.582 67.0391 29.3672 66.1953C30.1523 65.3516 31.043 64.7129 32.0391 64.2793C33.0352 63.8457 34.0664 63.6289 35.1328 63.6289C36.4922 63.6289 37.6641 63.8633 38.6484 64.332C39.6445 64.8008 40.459 65.457 41.0918 66.3008C41.7246 67.1328 42.1934 68.1172 42.498 69.2539C42.8027 70.3789 42.9551 71.6094 42.9551 72.9453V74.4043H28.752V71.75H39.7031V71.5039C39.6562 70.6602 39.4805 69.8398 39.1758 69.043C38.8828 68.2461 38.4141 67.5898 37.7695 67.0742C37.125 66.5586 36.2461 66.3008 35.1328 66.3008C34.3945 66.3008 33.7148 66.459 33.0938 66.7754C32.4727 67.0801 31.9395 67.5371 31.4941 68.1465C31.0488 68.7559 30.7031 69.5 30.457 70.3789C30.2109 71.2578 30.0879 72.2715 30.0879 73.4199V74.1582C30.0879 75.0605 30.2109 75.9102 30.457 76.707C30.7148 77.4922 31.084 78.1836 31.5645 78.7812C32.0566 79.3789 32.6484 79.8477 33.3398 80.1875C34.043 80.5273 34.8398 80.6973 35.7305 80.6973C36.8789 80.6973 37.8516 80.4629 38.6484 79.9941C39.4453 79.5254 40.1426 78.8984 40.7402 78.1133L42.709 79.6777C42.2988 80.2988 41.7773 80.8906 41.1445 81.4531C40.5117 82.0156 39.7324 82.4727 38.8066 82.8242C37.8926 83.1758 36.8086 83.3516 35.5547 83.3516ZM57.9668 79.748V69.957C57.9668 69.207 57.8145 68.5566 57.5098 68.0059C57.2168 67.4434 56.7715 67.0098 56.1738 66.7051C55.5762 66.4004 54.8379 66.248 53.959 66.248C53.1387 66.248 52.418 66.3887 51.7969 66.6699C51.1875 66.9512 50.707 67.3203 50.3555 67.7773C50.0156 68.2344 49.8457 68.7266 49.8457 69.2539H46.5938C46.5938 68.5742 46.7695 67.9004 47.1211 67.2324C47.4727 66.5645 47.9766 65.9609 48.6328 65.4219C49.3008 64.8711 50.0977 64.4375 51.0234 64.1211C51.9609 63.793 53.0039 63.6289 54.1523 63.6289C55.5352 63.6289 56.7539 63.8633 57.8086 64.332C58.875 64.8008 59.707 65.5098 60.3047 66.459C60.9141 67.3965 61.2188 68.5742 61.2188 69.9922V78.8516C61.2188 79.4844 61.2715 80.1582 61.377 80.873C61.4941 81.5879 61.6641 82.2031 61.8867 82.7188V83H58.4941C58.3301 82.625 58.2012 82.127 58.1074 81.5059C58.0137 80.873 57.9668 80.2871 57.9668 79.748ZM58.5293 71.4688L58.5645 73.7539H55.2773C54.3516 73.7539 53.5254 73.8301 52.7988 73.9824C52.0723 74.123 51.4629 74.3398 50.9707 74.6328C50.4785 74.9258 50.1035 75.2949 49.8457 75.7402C49.5879 76.1738 49.459 76.6836 49.459 77.2695C49.459 77.8672 49.5938 78.4121 49.8633 78.9043C50.1328 79.3965 50.5371 79.7891 51.0762 80.082C51.627 80.3633 52.3008 80.5039 53.0977 80.5039C54.0938 80.5039 54.9727 80.293 55.7344 79.8711C56.4961 79.4492 57.0996 78.9336 57.5449 78.3242C58.002 77.7148 58.248 77.123 58.2832 76.5488L59.6719 78.1133C59.5898 78.6055 59.3672 79.1504 59.0039 79.748C58.6406 80.3457 58.1543 80.9199 57.5449 81.4707C56.9473 82.0098 56.2324 82.4609 55.4004 82.8242C54.5801 83.1758 53.6543 83.3516 52.623 83.3516C51.334 83.3516 50.2031 83.0996 49.2305 82.5957C48.2695 82.0918 47.5195 81.418 46.9805 80.5742C46.4531 79.7188 46.1895 78.7637 46.1895 77.709C46.1895 76.6895 46.3887 75.793 46.7871 75.0195C47.1855 74.2344 47.7598 73.584 48.5098 73.0684C49.2598 72.541 50.1621 72.1426 51.2168 71.873C52.2715 71.6035 53.4492 71.4688 54.75 71.4688H58.5293ZM69.8672 56V83H66.5977V56H69.8672ZM83.0508 63.9805V66.4766H72.7676V63.9805H83.0508ZM76.248 59.3574H79.5V78.2891C79.5 78.9336 79.5996 79.4199 79.7988 79.748C79.998 80.0762 80.2559 80.293 80.5723 80.3984C80.8887 80.5039 81.2285 80.5566 81.5918 80.5566C81.8613 80.5566 82.1426 80.5332 82.4355 80.4863C82.7402 80.4277 82.9688 80.3809 83.1211 80.3457L83.1387 83C82.8809 83.082 82.541 83.1582 82.1191 83.2285C81.709 83.3105 81.2109 83.3516 80.625 83.3516C79.8281 83.3516 79.0957 83.1934 78.4277 82.877C77.7598 82.5605 77.2266 82.0332 76.8281 81.2949C76.4414 80.5449 76.248 79.5371 76.248 78.2715V59.3574ZM85.6523 73.7012V73.2969C85.6523 71.9258 85.8516 70.6543 86.25 69.4824C86.6484 68.2988 87.2227 67.2734 87.9727 66.4062C88.7227 65.5273 89.6309 64.8477 90.6973 64.3672C91.7637 63.875 92.959 63.6289 94.2832 63.6289C95.6191 63.6289 96.8203 63.875 97.8867 64.3672C98.9648 64.8477 99.8789 65.5273 100.629 66.4062C101.391 67.2734 101.971 68.2988 102.369 69.4824C102.768 70.6543 102.967 71.9258 102.967 73.2969V73.7012C102.967 75.0723 102.768 76.3438 102.369 77.5156C101.971 78.6875 101.391 79.7129 100.629 80.5918C99.8789 81.459 98.9707 82.1387 97.9043 82.6309C96.8496 83.1113 95.6543 83.3516 94.3184 83.3516C92.9824 83.3516 91.7812 83.1113 90.7148 82.6309C89.6484 82.1387 88.7344 81.459 87.9727 80.5918C87.2227 79.7129 86.6484 78.6875 86.25 77.5156C85.8516 76.3438 85.6523 75.0723 85.6523 73.7012ZM88.9043 73.2969V73.7012C88.9043 74.6504 89.0156 75.5469 89.2383 76.3906C89.4609 77.2227 89.7949 77.9609 90.2402 78.6055C90.6973 79.25 91.2656 79.7598 91.9453 80.1348C92.625 80.498 93.416 80.6797 94.3184 80.6797C95.209 80.6797 95.9883 80.498 96.6562 80.1348C97.3359 79.7598 97.8984 79.25 98.3438 78.6055C98.7891 77.9609 99.123 77.2227 99.3457 76.3906C99.5801 75.5469 99.6973 74.6504 99.6973 73.7012V73.2969C99.6973 72.3594 99.5801 71.4746 99.3457 70.6426C99.123 69.7988 98.7832 69.0547 98.3262 68.4102C97.8809 67.7539 97.3184 67.2383 96.6387 66.8633C95.9707 66.4883 95.1855 66.3008 94.2832 66.3008C93.3926 66.3008 92.6074 66.4883 91.9277 66.8633C91.2598 67.2383 90.6973 67.7539 90.2402 68.4102C89.7949 69.0547 89.4609 69.7988 89.2383 70.6426C89.0156 71.4746 88.9043 72.3594 88.9043 73.2969ZM110.297 66.9688V83H107.045V63.9805H110.209L110.297 66.9688ZM116.238 63.875L116.221 66.8984C115.951 66.8398 115.693 66.8047 115.447 66.793C115.213 66.7695 114.943 66.7578 114.639 66.7578C113.889 66.7578 113.227 66.875 112.652 67.1094C112.078 67.3438 111.592 67.6719 111.193 68.0938C110.795 68.5156 110.479 69.0195 110.244 69.6055C110.021 70.1797 109.875 70.8125 109.805 71.5039L108.891 72.0312C108.891 70.8828 109.002 69.8047 109.225 68.7969C109.459 67.7891 109.816 66.8984 110.297 66.125C110.777 65.3398 111.387 64.7305 112.125 64.2969C112.875 63.8516 113.766 63.6289 114.797 63.6289C115.031 63.6289 115.301 63.6582 115.605 63.7168C115.91 63.7637 116.121 63.8164 116.238 63.875Z" fill="white"/>
<path d="M403.428 57.4062V83H400.088V57.4062H403.428ZM411.654 57.4062V60.1836H391.879V57.4062H411.654ZM418.492 63.9805V83H415.223V63.9805H418.492ZM414.977 58.9355C414.977 58.4082 415.135 57.9629 415.451 57.5996C415.779 57.2363 416.26 57.0547 416.893 57.0547C417.514 57.0547 417.988 57.2363 418.316 57.5996C418.656 57.9629 418.826 58.4082 418.826 58.9355C418.826 59.4395 418.656 59.873 418.316 60.2363C417.988 60.5879 417.514 60.7637 416.893 60.7637C416.26 60.7637 415.779 60.5879 415.451 60.2363C415.135 59.873 414.977 59.4395 414.977 58.9355ZM436.035 63.9805H438.988V82.5957C438.988 84.2715 438.648 85.7012 437.969 86.8848C437.289 88.0684 436.34 88.9648 435.121 89.5742C433.914 90.1953 432.52 90.5059 430.938 90.5059C430.281 90.5059 429.508 90.4004 428.617 90.1895C427.738 89.9902 426.871 89.6445 426.016 89.1523C425.172 88.6719 424.463 88.0215 423.889 87.2012L425.594 85.2676C426.391 86.2285 427.223 86.8965 428.09 87.2715C428.969 87.6465 429.836 87.834 430.691 87.834C431.723 87.834 432.613 87.6406 433.363 87.2539C434.113 86.8672 434.693 86.293 435.104 85.5312C435.525 84.7812 435.736 83.8555 435.736 82.7539V68.1641L436.035 63.9805ZM422.939 73.7012V73.332C422.939 71.8789 423.109 70.5605 423.449 69.377C423.801 68.1816 424.299 67.1562 424.943 66.3008C425.6 65.4453 426.391 64.7891 427.316 64.332C428.242 63.8633 429.285 63.6289 430.445 63.6289C431.641 63.6289 432.684 63.8398 433.574 64.2617C434.477 64.6719 435.238 65.2754 435.859 66.0723C436.492 66.8574 436.99 67.8066 437.354 68.9199C437.717 70.0332 437.969 71.293 438.109 72.6992V74.3164C437.98 75.7109 437.729 76.9648 437.354 78.0781C436.99 79.1914 436.492 80.1406 435.859 80.9258C435.238 81.7109 434.477 82.3145 433.574 82.7363C432.672 83.1465 431.617 83.3516 430.41 83.3516C429.273 83.3516 428.242 83.1113 427.316 82.6309C426.402 82.1504 425.617 81.4766 424.961 80.6094C424.305 79.7422 423.801 78.7227 423.449 77.5508C423.109 76.3672 422.939 75.084 422.939 73.7012ZM426.191 73.332V73.7012C426.191 74.6504 426.285 75.541 426.473 76.373C426.672 77.2051 426.971 77.9375 427.369 78.5703C427.779 79.2031 428.301 79.7012 428.934 80.0645C429.566 80.416 430.322 80.5918 431.201 80.5918C432.279 80.5918 433.17 80.3633 433.873 79.9062C434.576 79.4492 435.133 78.8457 435.543 78.0957C435.965 77.3457 436.293 76.5312 436.527 75.6523V71.416C436.398 70.7715 436.199 70.1504 435.93 69.5527C435.672 68.9434 435.332 68.4043 434.91 67.9355C434.5 67.4551 433.99 67.0742 433.381 66.793C432.771 66.5117 432.057 66.3711 431.236 66.3711C430.346 66.3711 429.578 66.5586 428.934 66.9336C428.301 67.2969 427.779 67.8008 427.369 68.4453C426.971 69.0781 426.672 69.8164 426.473 70.6602C426.285 71.4922 426.191 72.3828 426.191 73.332ZM451.82 83.3516C450.496 83.3516 449.295 83.1289 448.217 82.6836C447.15 82.2266 446.23 81.5879 445.457 80.7676C444.695 79.9473 444.109 78.9746 443.699 77.8496C443.289 76.7246 443.084 75.4941 443.084 74.1582V73.4199C443.084 71.873 443.312 70.4961 443.77 69.2891C444.227 68.0703 444.848 67.0391 445.633 66.1953C446.418 65.3516 447.309 64.7129 448.305 64.2793C449.301 63.8457 450.332 63.6289 451.398 63.6289C452.758 63.6289 453.93 63.8633 454.914 64.332C455.91 64.8008 456.725 65.457 457.357 66.3008C457.99 67.1328 458.459 68.1172 458.764 69.2539C459.068 70.3789 459.221 71.6094 459.221 72.9453V74.4043H445.018V71.75H455.969V71.5039C455.922 70.6602 455.746 69.8398 455.441 69.043C455.148 68.2461 454.68 67.5898 454.035 67.0742C453.391 66.5586 452.512 66.3008 451.398 66.3008C450.66 66.3008 449.98 66.459 449.359 66.7754C448.738 67.0801 448.205 67.5371 447.76 68.1465C447.314 68.7559 446.969 69.5 446.723 70.3789C446.477 71.2578 446.354 72.2715 446.354 73.4199V74.1582C446.354 75.0605 446.477 75.9102 446.723 76.707C446.98 77.4922 447.35 78.1836 447.83 78.7812C448.322 79.3789 448.914 79.8477 449.605 80.1875C450.309 80.5273 451.105 80.6973 451.996 80.6973C453.145 80.6973 454.117 80.4629 454.914 79.9941C455.711 79.5254 456.408 78.8984 457.006 78.1133L458.975 79.6777C458.564 80.2988 458.043 80.8906 457.41 81.4531C456.777 82.0156 455.998 82.4727 455.072 82.8242C454.158 83.1758 453.074 83.3516 451.82 83.3516ZM466.27 66.9688V83H463.018V63.9805H466.182L466.27 66.9688ZM472.211 63.875L472.193 66.8984C471.924 66.8398 471.666 66.8047 471.42 66.793C471.186 66.7695 470.916 66.7578 470.611 66.7578C469.861 66.7578 469.199 66.875 468.625 67.1094C468.051 67.3438 467.564 67.6719 467.166 68.0938C466.768 68.5156 466.451 69.0195 466.217 69.6055C465.994 70.1797 465.848 70.8125 465.777 71.5039L464.863 72.0312C464.863 70.8828 464.975 69.8047 465.197 68.7969C465.432 67.7891 465.789 66.8984 466.27 66.125C466.75 65.3398 467.359 64.7305 468.098 64.2969C468.848 63.8516 469.738 63.6289 470.77 63.6289C471.004 63.6289 471.273 63.6582 471.578 63.7168C471.883 63.7637 472.094 63.8164 472.211 63.875ZM484.639 57.4062H493.111C495.033 57.4062 496.656 57.6992 497.98 58.2852C499.316 58.8711 500.33 59.7383 501.021 60.8867C501.725 62.0234 502.076 63.4238 502.076 65.0879C502.076 66.2598 501.836 67.332 501.355 68.3047C500.887 69.2656 500.207 70.0859 499.316 70.7656C498.438 71.4336 497.383 71.9316 496.152 72.2598L495.203 72.6289H487.24L487.205 69.8691H493.217C494.436 69.8691 495.449 69.6582 496.258 69.2363C497.066 68.8027 497.676 68.2227 498.086 67.4961C498.496 66.7695 498.701 65.9668 498.701 65.0879C498.701 64.1035 498.508 63.2422 498.121 62.5039C497.734 61.7656 497.125 61.1973 496.293 60.7988C495.473 60.3887 494.412 60.1836 493.111 60.1836H488.031V83H484.639V57.4062ZM499.598 83L493.375 71.3984L496.908 71.3809L503.219 82.7891V83H499.598ZM514.223 83.3516C512.898 83.3516 511.697 83.1289 510.619 82.6836C509.553 82.2266 508.633 81.5879 507.859 80.7676C507.098 79.9473 506.512 78.9746 506.102 77.8496C505.691 76.7246 505.486 75.4941 505.486 74.1582V73.4199C505.486 71.873 505.715 70.4961 506.172 69.2891C506.629 68.0703 507.25 67.0391 508.035 66.1953C508.82 65.3516 509.711 64.7129 510.707 64.2793C511.703 63.8457 512.734 63.6289 513.801 63.6289C515.16 63.6289 516.332 63.8633 517.316 64.332C518.312 64.8008 519.127 65.457 519.76 66.3008C520.393 67.1328 520.861 68.1172 521.166 69.2539C521.471 70.3789 521.623 71.6094 521.623 72.9453V74.4043H507.42V71.75H518.371V71.5039C518.324 70.6602 518.148 69.8398 517.844 69.043C517.551 68.2461 517.082 67.5898 516.438 67.0742C515.793 66.5586 514.914 66.3008 513.801 66.3008C513.062 66.3008 512.383 66.459 511.762 66.7754C511.141 67.0801 510.607 67.5371 510.162 68.1465C509.717 68.7559 509.371 69.5 509.125 70.3789C508.879 71.2578 508.756 72.2715 508.756 73.4199V74.1582C508.756 75.0605 508.879 75.9102 509.125 76.707C509.383 77.4922 509.752 78.1836 510.232 78.7812C510.725 79.3789 511.316 79.8477 512.008 80.1875C512.711 80.5273 513.508 80.6973 514.398 80.6973C515.547 80.6973 516.52 80.4629 517.316 79.9941C518.113 79.5254 518.811 78.8984 519.408 78.1133L521.377 79.6777C520.967 80.2988 520.445 80.8906 519.812 81.4531C519.18 82.0156 518.4 82.4727 517.475 82.8242C516.561 83.1758 515.477 83.3516 514.223 83.3516ZM536.635 79.748V69.957C536.635 69.207 536.482 68.5566 536.178 68.0059C535.885 67.4434 535.439 67.0098 534.842 66.7051C534.244 66.4004 533.506 66.248 532.627 66.248C531.807 66.248 531.086 66.3887 530.465 66.6699C529.855 66.9512 529.375 67.3203 529.023 67.7773C528.684 68.2344 528.514 68.7266 528.514 69.2539H525.262C525.262 68.5742 525.438 67.9004 525.789 67.2324C526.141 66.5645 526.645 65.9609 527.301 65.4219C527.969 64.8711 528.766 64.4375 529.691 64.1211C530.629 63.793 531.672 63.6289 532.82 63.6289C534.203 63.6289 535.422 63.8633 536.477 64.332C537.543 64.8008 538.375 65.5098 538.973 66.459C539.582 67.3965 539.887 68.5742 539.887 69.9922V78.8516C539.887 79.4844 539.939 80.1582 540.045 80.873C540.162 81.5879 540.332 82.2031 540.555 82.7188V83H537.162C536.998 82.625 536.869 82.127 536.775 81.5059C536.682 80.873 536.635 80.2871 536.635 79.748ZM537.197 71.4688L537.232 73.7539H533.945C533.02 73.7539 532.193 73.8301 531.467 73.9824C530.74 74.123 530.131 74.3398 529.639 74.6328C529.146 74.9258 528.771 75.2949 528.514 75.7402C528.256 76.1738 528.127 76.6836 528.127 77.2695C528.127 77.8672 528.262 78.4121 528.531 78.9043C528.801 79.3965 529.205 79.7891 529.744 80.082C530.295 80.3633 530.969 80.5039 531.766 80.5039C532.762 80.5039 533.641 80.293 534.402 79.8711C535.164 79.4492 535.768 78.9336 536.213 78.3242C536.67 77.7148 536.916 77.123 536.951 76.5488L538.34 78.1133C538.258 78.6055 538.035 79.1504 537.672 79.748C537.309 80.3457 536.822 80.9199 536.213 81.4707C535.615 82.0098 534.9 82.4609 534.068 82.8242C533.248 83.1758 532.322 83.3516 531.291 83.3516C530.002 83.3516 528.871 83.0996 527.898 82.5957C526.938 82.0918 526.188 81.418 525.648 80.5742C525.121 79.7188 524.857 78.7637 524.857 77.709C524.857 76.6895 525.057 75.793 525.455 75.0195C525.854 74.2344 526.428 73.584 527.178 73.0684C527.928 72.541 528.83 72.1426 529.885 71.873C530.939 71.6035 532.117 71.4688 533.418 71.4688H537.197ZM548.535 56V83H545.266V56H548.535ZM561.719 63.9805V66.4766H551.436V63.9805H561.719ZM554.916 59.3574H558.168V78.2891C558.168 78.9336 558.268 79.4199 558.467 79.748C558.666 80.0762 558.924 80.293 559.24 80.3984C559.557 80.5039 559.896 80.5566 560.26 80.5566C560.529 80.5566 560.811 80.5332 561.104 80.4863C561.408 80.4277 561.637 80.3809 561.789 80.3457L561.807 83C561.549 83.082 561.209 83.1582 560.787 83.2285C560.377 83.3105 559.879 83.3516 559.293 83.3516C558.496 83.3516 557.764 83.1934 557.096 82.877C556.428 82.5605 555.895 82.0332 555.496 81.2949C555.109 80.5449 554.916 79.5371 554.916 78.2715V59.3574ZM564.32 73.7012V73.2969C564.32 71.9258 564.52 70.6543 564.918 69.4824C565.316 68.2988 565.891 67.2734 566.641 66.4062C567.391 65.5273 568.299 64.8477 569.365 64.3672C570.432 63.875 571.627 63.6289 572.951 63.6289C574.287 63.6289 575.488 63.875 576.555 64.3672C577.633 64.8477 578.547 65.5273 579.297 66.4062C580.059 67.2734 580.639 68.2988 581.037 69.4824C581.436 70.6543 581.635 71.9258 581.635 73.2969V73.7012C581.635 75.0723 581.436 76.3438 581.037 77.5156C580.639 78.6875 580.059 79.7129 579.297 80.5918C578.547 81.459 577.639 82.1387 576.572 82.6309C575.518 83.1113 574.322 83.3516 572.986 83.3516C571.65 83.3516 570.449 83.1113 569.383 82.6309C568.316 82.1387 567.402 81.459 566.641 80.5918C565.891 79.7129 565.316 78.6875 564.918 77.5156C564.52 76.3438 564.32 75.0723 564.32 73.7012ZM567.572 73.2969V73.7012C567.572 74.6504 567.684 75.5469 567.906 76.3906C568.129 77.2227 568.463 77.9609 568.908 78.6055C569.365 79.25 569.934 79.7598 570.613 80.1348C571.293 80.498 572.084 80.6797 572.986 80.6797C573.877 80.6797 574.656 80.498 575.324 80.1348C576.004 79.7598 576.566 79.25 577.012 78.6055C577.457 77.9609 577.791 77.2227 578.014 76.3906C578.248 75.5469 578.365 74.6504 578.365 73.7012V73.2969C578.365 72.3594 578.248 71.4746 578.014 70.6426C577.791 69.7988 577.451 69.0547 576.994 68.4102C576.549 67.7539 575.986 67.2383 575.307 66.8633C574.639 66.4883 573.854 66.3008 572.951 66.3008C572.061 66.3008 571.275 66.4883 570.596 66.8633C569.928 67.2383 569.365 67.7539 568.908 68.4102C568.463 69.0547 568.129 69.7988 567.906 70.6426C567.684 71.4746 567.572 72.3594 567.572 73.2969ZM588.965 66.9688V83H585.713V63.9805H588.877L588.965 66.9688ZM594.906 63.875L594.889 66.8984C594.619 66.8398 594.361 66.8047 594.115 66.793C593.881 66.7695 593.611 66.7578 593.307 66.7578C592.557 66.7578 591.895 66.875 591.32 67.1094C590.746 67.3438 590.26 67.6719 589.861 68.0938C589.463 68.5156 589.146 69.0195 588.912 69.6055C588.689 70.1797 588.543 70.8125 588.473 71.5039L587.559 72.0312C587.559 70.8828 587.67 69.8047 587.893 68.7969C588.127 67.7891 588.484 66.8984 588.965 66.125C589.445 65.3398 590.055 64.7305 590.793 64.2969C591.543 63.8516 592.434 63.6289 593.465 63.6289C593.699 63.6289 593.969 63.6582 594.273 63.7168C594.578 63.7637 594.789 63.8164 594.906 63.875ZM608.986 77.9551C608.986 77.4863 608.881 77.0527 608.67 76.6543C608.471 76.2441 608.055 75.875 607.422 75.5469C606.801 75.207 605.863 74.9141 604.609 74.668C603.555 74.4453 602.6 74.1816 601.744 73.877C600.9 73.5723 600.18 73.2031 599.582 72.7695C598.996 72.3359 598.545 71.8262 598.229 71.2402C597.912 70.6543 597.754 69.9688 597.754 69.1836C597.754 68.4336 597.918 67.7246 598.246 67.0566C598.586 66.3887 599.061 65.7969 599.67 65.2812C600.291 64.7656 601.035 64.3613 601.902 64.0684C602.77 63.7754 603.736 63.6289 604.803 63.6289C606.326 63.6289 607.627 63.8984 608.705 64.4375C609.783 64.9766 610.609 65.6973 611.184 66.5996C611.758 67.4902 612.045 68.4805 612.045 69.5703H608.793C608.793 69.043 608.635 68.5332 608.318 68.041C608.014 67.5371 607.562 67.1211 606.965 66.793C606.379 66.4648 605.658 66.3008 604.803 66.3008C603.9 66.3008 603.168 66.4414 602.605 66.7227C602.055 66.9922 601.65 67.3379 601.393 67.7598C601.146 68.1816 601.023 68.627 601.023 69.0957C601.023 69.4473 601.082 69.7637 601.199 70.0449C601.328 70.3145 601.551 70.5664 601.867 70.8008C602.184 71.0234 602.629 71.2344 603.203 71.4336C603.777 71.6328 604.51 71.832 605.4 72.0312C606.959 72.3828 608.242 72.8047 609.25 73.2969C610.258 73.7891 611.008 74.3926 611.5 75.1074C611.992 75.8223 612.238 76.6895 612.238 77.709C612.238 78.541 612.062 79.3027 611.711 79.9941C611.371 80.6855 610.873 81.2832 610.217 81.7871C609.572 82.2793 608.799 82.666 607.896 82.9473C607.006 83.2168 606.004 83.3516 604.891 83.3516C603.215 83.3516 601.797 83.0527 600.637 82.4551C599.477 81.8574 598.598 81.084 598 80.1348C597.402 79.1855 597.104 78.1836 597.104 77.1289H600.373C600.42 78.0195 600.678 78.7285 601.146 79.2559C601.615 79.7715 602.189 80.1406 602.869 80.3633C603.549 80.5742 604.223 80.6797 604.891 80.6797C605.781 80.6797 606.525 80.5625 607.123 80.3281C607.732 80.0938 608.195 79.7715 608.512 79.3613C608.828 78.9512 608.986 78.4824 608.986 77.9551Z" fill="white"/>
<rect x="369" y="9" width="6" height="74" fill="#FAD605"/>
</g>
<defs>
<filter id="filter0_d_3_8" x="-1" y="-2" width="938" height="100" filterUnits="userSpaceOnUse" color-interpolation-filters="sRGB">
<feFlood flood-opacity="0" result="BackgroundImageFix"/>
<feColorMatrix in="SourceAlpha" type="matrix" values="0 0 0 0 0 0 0 0 0 0 0 0 0 0 0 0 0 0 127 0" result="hardAlpha"/>
<feOffset dy="2"/>
<feGaussianBlur stdDeviation="2"/>
<feComposite in2="hardAlpha" operator="out"/>
<feColorMatrix type="matrix" values="0 0 0 0 0 0 0 0 0 0 0 0 0 0 0 0 0 0 0.25 0"/>
<feBlend mode="normal" in2="BackgroundImageFix" result="effect1_dropShadow_3_8"/>
<feBlend mode="normal" in="SourceGraphic" in2="effect1_dropShadow_3_8" result="shape"/>
</filter>
</defs>
</svg>
