<svg width="486" height="85" viewBox="0 0 486 85" fill="none" xmlns="http://www.w3.org/2000/svg">
<g filter="url(#filter0_d_4_4)">
<rect x="4" y="2" width="6" height="74" fill="#FAD605"/>
<path d="M33.4297 8.40625V34H28.6133V8.40625H33.4297ZM41.375 8.40625V12.2207H20.7559V8.40625H41.375ZM61.5723 18.9707V22.7676H48.1074V18.9707H61.5723ZM49.4258 8.40625V34H44.5918V8.40625H49.4258ZM65.1582 8.40625V34H60.3242V8.40625H65.1582ZM90.8047 20.5527V21.8711C90.8047 23.8047 90.5469 25.5449 90.0312 27.0918C89.5156 28.627 88.7832 29.9336 87.834 31.0117C86.8848 32.0898 85.7539 32.916 84.4414 33.4902C83.1289 34.0645 81.6699 34.3516 80.0645 34.3516C78.4824 34.3516 77.0293 34.0645 75.7051 33.4902C74.3926 32.916 73.2559 32.0898 72.2949 31.0117C71.334 29.9336 70.5898 28.627 70.0625 27.0918C69.5352 25.5449 69.2715 23.8047 69.2715 21.8711V20.5527C69.2715 18.6074 69.5352 16.8672 70.0625 15.332C70.5898 13.7969 71.3281 12.4902 72.2773 11.4121C73.2266 10.3223 74.3574 9.49023 75.6699 8.91602C76.9941 8.3418 78.4473 8.05469 80.0293 8.05469C81.6348 8.05469 83.0938 8.3418 84.4062 8.91602C85.7188 9.49023 86.8496 10.3223 87.7988 11.4121C88.7598 12.4902 89.498 13.7969 90.0137 15.332C90.541 16.8672 90.8047 18.6074 90.8047 20.5527ZM85.918 21.8711V20.5176C85.918 19.123 85.7891 17.8984 85.5312 16.8438C85.2734 15.7773 84.8926 14.8809 84.3887 14.1543C83.8848 13.4277 83.2637 12.8828 82.5254 12.5195C81.7871 12.1445 80.9551 11.957 80.0293 11.957C79.0918 11.957 78.2598 12.1445 77.5332 12.5195C76.8184 12.8828 76.209 13.4277 75.7051 14.1543C75.2012 14.8809 74.8145 15.7773 74.5449 16.8438C74.2871 17.8984 74.1582 19.123 74.1582 20.5176V21.8711C74.1582 23.2539 74.2871 24.4785 74.5449 25.5449C74.8145 26.6113 75.2012 27.5137 75.7051 28.252C76.2207 28.9785 76.8418 29.5293 77.5684 29.9043C78.2949 30.2793 79.127 30.4668 80.0645 30.4668C81.002 30.4668 81.834 30.2793 82.5605 29.9043C83.2871 29.5293 83.8965 28.9785 84.3887 28.252C84.8926 27.5137 85.2734 26.6113 85.5312 25.5449C85.7891 24.4785 85.918 23.2539 85.918 21.8711ZM97.0098 8.40625H101.193L108.189 27.6719L115.168 8.40625H119.369L109.859 34H106.502L97.0098 8.40625ZM94.9004 8.40625H98.9961L99.7344 26.1074V34H94.9004V8.40625ZM117.365 8.40625H121.479V34H116.645V26.1074L117.365 8.40625ZM136.895 12.291L129.6 34H124.484L134.047 8.40625H137.316L136.895 12.291ZM142.994 34L135.664 12.291L135.225 8.40625H138.512L148.127 34H142.994ZM142.66 24.4902V28.3047H128.932V24.4902H142.66ZM164.158 27.3555C164.158 26.8633 164.082 26.4238 163.93 26.0371C163.789 25.6387 163.525 25.2812 163.139 24.9648C162.764 24.6367 162.23 24.3203 161.539 24.0156C160.859 23.6992 159.98 23.3711 158.902 23.0312C157.707 22.6562 156.594 22.2344 155.562 21.7656C154.531 21.2969 153.623 20.752 152.838 20.1309C152.064 19.5098 151.461 18.7949 151.027 17.9863C150.594 17.166 150.377 16.2168 150.377 15.1387C150.377 14.084 150.6 13.123 151.045 12.2559C151.502 11.3887 152.146 10.6445 152.979 10.0234C153.811 9.39062 154.789 8.9043 155.914 8.56445C157.051 8.22461 158.305 8.05469 159.676 8.05469C161.574 8.05469 163.215 8.40039 164.598 9.0918C165.992 9.7832 167.07 10.7207 167.832 11.9043C168.594 13.0879 168.975 14.418 168.975 15.8945H164.158C164.158 15.0977 163.988 14.3945 163.648 13.7852C163.32 13.1758 162.816 12.6953 162.137 12.3438C161.469 11.9922 160.625 11.8164 159.605 11.8164C158.621 11.8164 157.801 11.9629 157.145 12.2559C156.5 12.5488 156.014 12.9473 155.686 13.4512C155.369 13.9551 155.211 14.5176 155.211 15.1387C155.211 15.6074 155.322 16.0293 155.545 16.4043C155.768 16.7676 156.102 17.1133 156.547 17.4414C156.992 17.7578 157.543 18.0566 158.199 18.3379C158.867 18.6074 159.641 18.877 160.52 19.1465C161.926 19.5684 163.156 20.0371 164.211 20.5527C165.277 21.0684 166.162 21.6543 166.865 22.3105C167.58 22.9668 168.113 23.7051 168.465 24.5254C168.828 25.3457 169.01 26.2773 169.01 27.3203C169.01 28.4219 168.793 29.4062 168.359 30.2734C167.926 31.1406 167.305 31.8789 166.496 32.4883C165.688 33.0977 164.715 33.5605 163.578 33.877C162.453 34.1934 161.193 34.3516 159.799 34.3516C158.557 34.3516 157.326 34.1875 156.107 33.8594C154.9 33.5195 153.805 33.0156 152.82 32.3477C151.836 31.668 151.051 30.8125 150.465 29.7812C149.879 28.7383 149.586 27.5195 149.586 26.125H154.438C154.438 26.9336 154.566 27.625 154.824 28.1992C155.094 28.7617 155.469 29.2246 155.949 29.5879C156.441 29.9395 157.016 30.1973 157.672 30.3613C158.328 30.5254 159.037 30.6074 159.799 30.6074C160.783 30.6074 161.592 30.4727 162.225 30.2031C162.869 29.9219 163.35 29.5352 163.666 29.043C163.994 28.5508 164.158 27.9883 164.158 27.3555ZM196.678 25.5801H201.512C201.383 27.291 200.908 28.8086 200.088 30.1328C199.268 31.4453 198.125 32.4766 196.66 33.2266C195.195 33.9766 193.42 34.3516 191.334 34.3516C189.729 34.3516 188.281 34.0703 186.992 33.5078C185.715 32.9336 184.619 32.1191 183.705 31.0645C182.803 29.998 182.111 28.7207 181.631 27.2324C181.15 25.7324 180.91 24.0508 180.91 22.1875V20.2363C180.91 18.373 181.156 16.6914 181.648 15.1914C182.141 13.6914 182.844 12.4141 183.758 11.3594C184.684 10.293 185.791 9.47266 187.08 8.89844C188.381 8.32422 189.834 8.03711 191.439 8.03711C193.525 8.03711 195.289 8.42383 196.73 9.19727C198.172 9.95898 199.291 11.0078 200.088 12.3438C200.885 13.6797 201.365 15.2148 201.529 16.9492H196.695C196.602 15.8711 196.367 14.957 195.992 14.207C195.629 13.457 195.078 12.8887 194.34 12.502C193.613 12.1035 192.646 11.9043 191.439 11.9043C190.502 11.9043 189.676 12.0801 188.961 12.4316C188.258 12.7832 187.672 13.3105 187.203 14.0137C186.734 14.7051 186.383 15.5723 186.148 16.6152C185.914 17.6465 185.797 18.8418 185.797 20.2012V22.1875C185.797 23.4883 185.902 24.6543 186.113 25.6855C186.324 26.7168 186.652 27.5898 187.098 28.3047C187.543 29.0195 188.117 29.5645 188.82 29.9395C189.523 30.3145 190.361 30.502 191.334 30.502C192.518 30.502 193.479 30.3145 194.217 29.9395C194.967 29.5645 195.535 29.0137 195.922 28.2871C196.32 27.5605 196.572 26.6582 196.678 25.5801ZM221.498 30.2031V34H208.631V30.2031H221.498ZM210.09 8.40625V34H205.256V8.40625H210.09ZM223.15 8.40625L228.775 20.3418L234.436 8.40625H239.744L231.236 24.6309V34H226.332V24.6309L217.807 8.40625H223.15ZM249.957 34H244.438L244.473 30.2031H249.957C251.445 30.2031 252.693 29.875 253.701 29.2188C254.709 28.5508 255.471 27.5957 255.986 26.3535C256.502 25.0996 256.76 23.5996 256.76 21.8535V20.5352C256.76 19.1875 256.613 17.998 256.32 16.9668C256.027 15.9355 255.594 15.0684 255.02 14.3652C254.457 13.6621 253.76 13.1289 252.928 12.7656C252.096 12.4023 251.141 12.2207 250.062 12.2207H244.332V8.40625H250.062C251.773 8.40625 253.332 8.69336 254.738 9.26758C256.156 9.8418 257.381 10.668 258.412 11.7461C259.455 12.8125 260.252 14.0898 260.803 15.5781C261.365 17.0664 261.646 18.7305 261.646 20.5703V21.8535C261.646 23.6816 261.365 25.3457 260.803 26.8457C260.252 28.334 259.455 29.6113 258.412 30.6777C257.381 31.7441 256.15 32.5645 254.721 33.1387C253.291 33.7129 251.703 34 249.957 34ZM247.145 8.40625V34H242.311V8.40625H247.145ZM282.723 30.2031V34H269.117V30.2031H282.723ZM270.594 8.40625V34H265.76V8.40625H270.594ZM280.947 18.9707V22.6797H269.117V18.9707H280.947ZM282.67 8.40625V12.2207H269.117V8.40625H282.67ZM293.823 21.2031H298.473C299.445 21.2031 300.28 21.3496 300.978 21.6426C301.675 21.9355 302.211 22.3691 302.586 22.9434C302.961 23.5176 303.148 24.2236 303.148 25.0615C303.148 25.7236 303.031 26.2979 302.797 26.7842C302.562 27.2705 302.231 27.6777 301.804 28.0059C301.382 28.334 300.884 28.5918 300.31 28.7793L299.554 29.166H295.449L295.432 27.2588H298.499C298.997 27.2588 299.41 27.1709 299.738 26.9951C300.066 26.8193 300.312 26.5762 300.477 26.2656C300.646 25.9551 300.731 25.6006 300.731 25.2021C300.731 24.7744 300.649 24.4053 300.485 24.0947C300.321 23.7783 300.072 23.5352 299.738 23.3652C299.404 23.1953 298.982 23.1104 298.473 23.1104H296.24V34H293.823V21.2031ZM301.048 34L298.086 28.2695L300.644 28.2607L303.641 33.877V34H301.048ZM309.362 34.1758C308.642 34.1758 307.994 34.0586 307.42 33.8242C306.846 33.5898 306.356 33.2646 305.952 32.8486C305.554 32.4268 305.246 31.9375 305.029 31.3809C304.818 30.8184 304.713 30.2148 304.713 29.5703V29.2188C304.713 28.4863 304.818 27.8213 305.029 27.2236C305.24 26.6201 305.539 26.1016 305.926 25.668C306.312 25.2344 306.775 24.9004 307.314 24.666C307.854 24.4316 308.448 24.3145 309.099 24.3145C309.772 24.3145 310.367 24.4287 310.883 24.6572C311.398 24.8799 311.829 25.1963 312.175 25.6064C312.521 26.0166 312.781 26.5088 312.957 27.083C313.133 27.6514 313.221 28.2812 313.221 28.9727V29.9482H305.768V28.3486H310.936V28.1729C310.924 27.8037 310.854 27.4668 310.725 27.1621C310.596 26.8516 310.396 26.6055 310.127 26.4238C309.857 26.2363 309.509 26.1426 309.081 26.1426C308.735 26.1426 308.434 26.2188 308.176 26.3711C307.924 26.5176 307.713 26.7285 307.543 27.0039C307.379 27.2734 307.256 27.5957 307.174 27.9707C307.092 28.3457 307.051 28.7617 307.051 29.2188V29.5703C307.051 29.9688 307.104 30.3379 307.209 30.6777C307.32 31.0176 307.481 31.3135 307.692 31.5654C307.909 31.8115 308.167 32.0049 308.466 32.1455C308.771 32.2803 309.116 32.3477 309.503 32.3477C309.989 32.3477 310.429 32.2539 310.821 32.0664C311.22 31.873 311.565 31.5889 311.858 31.2139L313.027 32.4268C312.828 32.7197 312.559 33.001 312.219 33.2705C311.885 33.54 311.48 33.7598 311.006 33.9297C310.531 34.0938 309.983 34.1758 309.362 34.1758ZM320.015 31.9785V27.5928C320.015 27.2705 319.959 26.9922 319.848 26.7578C319.736 26.5234 319.566 26.3418 319.338 26.2129C319.109 26.084 318.819 26.0195 318.468 26.0195C318.157 26.0195 317.885 26.0723 317.65 26.1777C317.422 26.2832 317.246 26.4326 317.123 26.626C317 26.8135 316.938 27.0303 316.938 27.2764H314.609C314.609 26.8838 314.703 26.5117 314.891 26.1602C315.078 25.8027 315.345 25.4863 315.69 25.2109C316.042 24.9297 316.461 24.71 316.947 24.5518C317.439 24.3936 317.99 24.3145 318.6 24.3145C319.32 24.3145 319.962 24.4375 320.524 24.6836C321.093 24.9238 321.538 25.2871 321.86 25.7734C322.188 26.2598 322.353 26.8721 322.353 27.6104V31.7588C322.353 32.2334 322.382 32.6406 322.44 32.9805C322.505 33.3145 322.599 33.6045 322.722 33.8506V34H320.357C320.246 33.7598 320.161 33.4551 320.103 33.0859C320.044 32.7109 320.015 32.3418 320.015 31.9785ZM320.34 28.208L320.357 29.5879H318.89C318.526 29.5879 318.207 29.626 317.932 29.7021C317.656 29.7725 317.431 29.8779 317.255 30.0186C317.079 30.1533 316.947 30.3174 316.859 30.5107C316.771 30.6982 316.728 30.9121 316.728 31.1523C316.728 31.3867 316.78 31.5977 316.886 31.7852C316.997 31.9727 317.155 32.1221 317.36 32.2334C317.571 32.3389 317.817 32.3916 318.099 32.3916C318.509 32.3916 318.866 32.3096 319.171 32.1455C319.476 31.9756 319.713 31.7705 319.883 31.5303C320.053 31.29 320.144 31.0615 320.155 30.8447L320.823 31.8467C320.741 32.0869 320.618 32.3418 320.454 32.6113C320.29 32.8809 320.079 33.1328 319.821 33.3672C319.563 33.6016 319.253 33.7949 318.89 33.9473C318.526 34.0996 318.104 34.1758 317.624 34.1758C317.009 34.1758 316.458 34.0527 315.972 33.8066C315.485 33.5605 315.102 33.2236 314.82 32.7959C314.539 32.3682 314.398 31.8818 314.398 31.3369C314.398 30.833 314.492 30.3877 314.68 30.001C314.867 29.6143 315.146 29.2891 315.515 29.0254C315.884 28.7559 316.341 28.5537 316.886 28.4189C317.437 28.2783 318.066 28.208 318.775 28.208H320.34ZM326.905 20.5V34H324.576V20.5H326.905ZM333.62 24.4902V26.1602H328.171V24.4902H333.62ZM329.63 22.1523H331.959V31.2578C331.959 31.5391 331.997 31.7559 332.073 31.9082C332.149 32.0605 332.264 32.1631 332.416 32.2158C332.568 32.2686 332.75 32.2949 332.961 32.2949C333.113 32.2949 333.254 32.2861 333.383 32.2686C333.512 32.251 333.62 32.2334 333.708 32.2158L333.717 33.9561C333.523 34.0205 333.304 34.0732 333.058 34.1143C332.817 34.1553 332.545 34.1758 332.24 34.1758C331.719 34.1758 331.262 34.0879 330.869 33.9121C330.477 33.7305 330.172 33.4404 329.955 33.042C329.738 32.6377 329.63 32.1045 329.63 31.4424V22.1523ZM334.525 29.3418V29.1572C334.525 28.46 334.625 27.8184 334.824 27.2324C335.023 26.6406 335.313 26.1279 335.694 25.6943C336.075 25.2607 336.541 24.9238 337.092 24.6836C337.643 24.4375 338.27 24.3145 338.973 24.3145C339.688 24.3145 340.32 24.4375 340.871 24.6836C341.428 24.9238 341.896 25.2607 342.277 25.6943C342.658 26.1279 342.948 26.6406 343.147 27.2324C343.347 27.8184 343.446 28.46 343.446 29.1572V29.3418C343.446 30.0332 343.347 30.6748 343.147 31.2666C342.948 31.8525 342.658 32.3652 342.277 32.8047C341.896 33.2383 341.431 33.5752 340.88 33.8154C340.329 34.0557 339.699 34.1758 338.99 34.1758C338.287 34.1758 337.657 34.0557 337.101 33.8154C336.544 33.5752 336.075 33.2383 335.694 32.8047C335.313 32.3652 335.023 31.8525 334.824 31.2666C334.625 30.6748 334.525 30.0332 334.525 29.3418ZM336.846 29.1572V29.3418C336.846 29.7578 336.887 30.1475 336.969 30.5107C337.051 30.874 337.177 31.1934 337.347 31.4688C337.517 31.7441 337.736 31.9609 338.006 32.1191C338.281 32.2715 338.609 32.3477 338.99 32.3477C339.365 32.3477 339.688 32.2715 339.957 32.1191C340.227 31.9609 340.446 31.7441 340.616 31.4688C340.792 31.1934 340.921 30.874 341.003 30.5107C341.085 30.1475 341.126 29.7578 341.126 29.3418V29.1572C341.126 28.7471 341.085 28.3633 341.003 28.0059C340.921 27.6426 340.792 27.3232 340.616 27.0479C340.446 26.7666 340.224 26.5469 339.948 26.3887C339.679 26.2246 339.354 26.1426 338.973 26.1426C338.598 26.1426 338.275 26.2246 338.006 26.3887C337.736 26.5469 337.517 26.7666 337.347 27.0479C337.177 27.3232 337.051 27.6426 336.969 28.0059C336.887 28.3633 336.846 28.7471 336.846 29.1572ZM347.454 26.4326V34H345.134V24.4902H347.331L347.454 26.4326ZM350.346 24.4287L350.311 26.5908C350.182 26.5674 350.035 26.5498 349.871 26.5381C349.713 26.5264 349.563 26.5205 349.423 26.5205C349.065 26.5205 348.752 26.5703 348.482 26.6699C348.213 26.7637 347.987 26.9014 347.806 27.083C347.63 27.2646 347.495 27.4873 347.401 27.751C347.308 28.0088 347.255 28.3018 347.243 28.6299L346.742 28.5684C346.742 27.9648 346.804 27.4053 346.927 26.8896C347.05 26.374 347.229 25.9229 347.463 25.5361C347.697 25.1494 347.99 24.8506 348.342 24.6396C348.699 24.4229 349.109 24.3145 349.572 24.3145C349.701 24.3145 349.839 24.3262 349.985 24.3496C350.138 24.3672 350.258 24.3936 350.346 24.4287ZM33.4297 50.4062V76H28.6133V50.4062H33.4297ZM41.375 50.4062V54.2207H20.7559V50.4062H41.375ZM49.7422 50.4062V76H44.9082V50.4062H49.7422ZM74.9316 62.7637V72.7305C74.5566 73.2109 73.9648 73.7324 73.1562 74.2949C72.3594 74.8574 71.3164 75.3438 70.0273 75.7539C68.7383 76.1523 67.1562 76.3516 65.2812 76.3516C63.6523 76.3516 62.1641 76.082 60.8164 75.543C59.4688 74.9922 58.3086 74.1895 57.3359 73.1348C56.3633 72.0801 55.6133 70.791 55.0859 69.2676C54.5586 67.7441 54.2949 66.0039 54.2949 64.0469V62.3594C54.2949 60.4023 54.541 58.6621 55.0332 57.1387C55.5371 55.6152 56.252 54.3262 57.1777 53.2715C58.1152 52.2168 59.2344 51.4141 60.5352 50.8633C61.8477 50.3125 63.3125 50.0371 64.9297 50.0371C67.0977 50.0371 68.8789 50.3945 70.2734 51.1094C71.6797 51.8242 72.7578 52.8086 73.5078 54.0625C74.2578 55.3047 74.7266 56.7344 74.9141 58.3516H70.2031C70.0742 57.4609 69.8164 56.6816 69.4297 56.0137C69.043 55.334 68.4922 54.8066 67.7773 54.4316C67.0742 54.0449 66.1602 53.8516 65.0352 53.8516C64.0859 53.8516 63.248 54.0391 62.5215 54.4141C61.7949 54.7891 61.1855 55.334 60.6934 56.0488C60.2012 56.7637 59.8262 57.6484 59.5684 58.7031C59.3223 59.7578 59.1992 60.9648 59.1992 62.3242V64.0469C59.1992 65.418 59.3398 66.6367 59.6211 67.7031C59.9023 68.7578 60.3066 69.6484 60.834 70.375C61.373 71.0898 62.0352 71.6348 62.8203 72.0098C63.6172 72.373 64.5195 72.5547 65.5273 72.5547C66.4414 72.5547 67.1973 72.4785 67.7949 72.3262C68.4043 72.1621 68.8906 71.9688 69.2539 71.7461C69.6172 71.5234 69.8984 71.3066 70.0977 71.0957V66.2969H65.0176V62.7637H74.9316ZM96.4648 72.2031V76H82.8594V72.2031H96.4648ZM84.3359 50.4062V76H79.502V50.4062H84.3359ZM94.6895 60.9707V64.6797H82.8594V60.9707H94.6895ZM96.4121 50.4062V54.2207H82.8594V50.4062H96.4121ZM99.8223 50.4062H109.121C111.066 50.4062 112.736 50.6992 114.131 51.2852C115.525 51.8711 116.598 52.7383 117.348 53.8867C118.098 55.0352 118.473 56.4473 118.473 58.123C118.473 59.4473 118.238 60.5957 117.77 61.5684C117.301 62.541 116.639 63.3555 115.783 64.0117C114.939 64.668 113.943 65.1836 112.795 65.5586L111.283 66.332H103.074L103.039 62.5176H109.174C110.17 62.5176 110.996 62.3418 111.652 61.9902C112.309 61.6387 112.801 61.1523 113.129 60.5312C113.469 59.9102 113.639 59.2012 113.639 58.4043C113.639 57.5488 113.475 56.8105 113.146 56.1895C112.818 55.5566 112.32 55.0703 111.652 54.7305C110.984 54.3906 110.141 54.2207 109.121 54.2207H104.656V76H99.8223V50.4062ZM114.271 76L108.348 64.5391L113.463 64.5215L119.457 75.7539V76H114.271ZM131.674 50.4062H140.973C142.918 50.4062 144.588 50.6992 145.982 51.2852C147.377 51.8711 148.449 52.7383 149.199 53.8867C149.949 55.0352 150.324 56.4473 150.324 58.123C150.324 59.4473 150.09 60.5957 149.621 61.5684C149.152 62.541 148.49 63.3555 147.635 64.0117C146.791 64.668 145.795 65.1836 144.646 65.5586L143.135 66.332H134.926L134.891 62.5176H141.025C142.021 62.5176 142.848 62.3418 143.504 61.9902C144.16 61.6387 144.652 61.1523 144.98 60.5312C145.32 59.9102 145.49 59.2012 145.49 58.4043C145.49 57.5488 145.326 56.8105 144.998 56.1895C144.67 55.5566 144.172 55.0703 143.504 54.7305C142.836 54.3906 141.992 54.2207 140.973 54.2207H136.508V76H131.674V50.4062ZM146.123 76L140.199 64.5391L145.314 64.5215L151.309 75.7539V76H146.123ZM171.523 72.2031V76H157.918V72.2031H171.523ZM159.395 50.4062V76H154.561V50.4062H159.395ZM169.748 60.9707V64.6797H157.918V60.9707H169.748ZM171.471 50.4062V54.2207H157.918V50.4062H171.471ZM185.059 54.291L177.764 76H172.648L182.211 50.4062H185.48L185.059 54.291ZM191.158 76L183.828 54.291L183.389 50.4062H186.676L196.291 76H191.158ZM190.824 66.4902V70.3047H177.096V66.4902H190.824ZM215.17 72.2031V76H202.303V72.2031H215.17ZM203.762 50.4062V76H198.928V50.4062H203.762ZM244.332 72.2031V76H230.727V72.2031H244.332ZM232.203 50.4062V76H227.369V50.4062H232.203ZM242.557 60.9707V64.6797H230.727V60.9707H242.557ZM244.279 50.4062V54.2207H230.727V50.4062H244.279ZM261.084 69.3555C261.084 68.8633 261.008 68.4238 260.855 68.0371C260.715 67.6387 260.451 67.2812 260.064 66.9648C259.689 66.6367 259.156 66.3203 258.465 66.0156C257.785 65.6992 256.906 65.3711 255.828 65.0312C254.633 64.6562 253.52 64.2344 252.488 63.7656C251.457 63.2969 250.549 62.752 249.764 62.1309C248.99 61.5098 248.387 60.7949 247.953 59.9863C247.52 59.166 247.303 58.2168 247.303 57.1387C247.303 56.084 247.525 55.123 247.971 54.2559C248.428 53.3887 249.072 52.6445 249.904 52.0234C250.736 51.3906 251.715 50.9043 252.84 50.5645C253.977 50.2246 255.23 50.0547 256.602 50.0547C258.5 50.0547 260.141 50.4004 261.523 51.0918C262.918 51.7832 263.996 52.7207 264.758 53.9043C265.52 55.0879 265.9 56.418 265.9 57.8945H261.084C261.084 57.0977 260.914 56.3945 260.574 55.7852C260.246 55.1758 259.742 54.6953 259.062 54.3438C258.395 53.9922 257.551 53.8164 256.531 53.8164C255.547 53.8164 254.727 53.9629 254.07 54.2559C253.426 54.5488 252.939 54.9473 252.611 55.4512C252.295 55.9551 252.137 56.5176 252.137 57.1387C252.137 57.6074 252.248 58.0293 252.471 58.4043C252.693 58.7676 253.027 59.1133 253.473 59.4414C253.918 59.7578 254.469 60.0566 255.125 60.3379C255.793 60.6074 256.566 60.877 257.445 61.1465C258.852 61.5684 260.082 62.0371 261.137 62.5527C262.203 63.0684 263.088 63.6543 263.791 64.3105C264.506 64.9668 265.039 65.7051 265.391 66.5254C265.754 67.3457 265.936 68.2773 265.936 69.3203C265.936 70.4219 265.719 71.4062 265.285 72.2734C264.852 73.1406 264.23 73.8789 263.422 74.4883C262.613 75.0977 261.641 75.5605 260.504 75.877C259.379 76.1934 258.119 76.3516 256.725 76.3516C255.482 76.3516 254.252 76.1875 253.033 75.8594C251.826 75.5195 250.73 75.0156 249.746 74.3477C248.762 73.668 247.977 72.8125 247.391 71.7812C246.805 70.7383 246.512 69.5195 246.512 68.125H251.363C251.363 68.9336 251.492 69.625 251.75 70.1992C252.02 70.7617 252.395 71.2246 252.875 71.5879C253.367 71.9395 253.941 72.1973 254.598 72.3613C255.254 72.5254 255.963 72.6074 256.725 72.6074C257.709 72.6074 258.518 72.4727 259.15 72.2031C259.795 71.9219 260.275 71.5352 260.592 71.043C260.92 70.5508 261.084 69.9883 261.084 69.3555ZM280.648 50.4062V76H275.832V50.4062H280.648ZM288.594 50.4062V54.2207H267.975V50.4062H288.594ZM300.195 54.291L292.9 76H287.785L297.348 50.4062H300.617L300.195 54.291ZM306.295 76L298.965 54.291L298.525 50.4062H301.812L311.428 76H306.295ZM305.961 66.4902V70.3047H292.232V66.4902H305.961ZM322.836 50.4062V76H318.02V50.4062H322.836ZM330.781 50.4062V54.2207H310.162V50.4062H330.781ZM350.961 72.2031V76H337.355V72.2031H350.961ZM338.832 50.4062V76H333.998V50.4062H338.832ZM349.186 60.9707V64.6797H337.355V60.9707H349.186ZM350.908 50.4062V54.2207H337.355V50.4062H350.908Z" fill="white"/>
</g>
<defs>
<filter id="filter0_d_4_4" x="0" y="-1" width="490" height="92" filterUnits="userSpaceOnUse" color-interpolation-filters="sRGB">
<feFlood flood-opacity="0" result="BackgroundImageFix"/>
<feColorMatrix in="SourceAlpha" type="matrix" values="0 0 0 0 0 0 0 0 0 0 0 0 0 0 0 0 0 0 127 0" result="hardAlpha"/>
<feOffset dy="2"/>
<feGaussianBlur stdDeviation="2"/>
<feComposite in2="hardAlpha" operator="out"/>
<feColorMatrix type="matrix" values="0 0 0 0 0 0 0 0 0 0 0 0 0 0 0 0 0 0 0.25 0"/>
<feBlend mode="normal" in2="BackgroundImageFix" result="effect1_dropShadow_4_4"/>
<feBlend mode="normal" in="SourceGraphic" in2="effect1_dropShadow_4_4" result="shape"/>
</filter>
</defs>
</svg>
